<svg xmlns="http://www.w3.org/2000/svg" xmlns:xlink="http://www.w3.org/1999/xlink" viewBox="0 0 148.14 209.78"><defs><style>.cls-1,.cls-2,.cls-3,.cls-4,.cls-5,.cls-6{fill:none;stroke-linecap:round;stroke-width:4px;}.cls-1,.cls-2,.cls-3,.cls-4,.cls-5,.cls-6,.cls-7{stroke-miterlimit:10;}.cls-1{stroke:url(#Безымянный_градиент_337);}.cls-2{stroke:url(#Безымянный_градиент_337-2);}.cls-3{stroke:url(#Безымянный_градиент_337-3);}.cls-4{stroke:url(#Foliage_1);}.cls-5{stroke:url(#Foliage_1-2);}.cls-6{stroke:url(#Foliage_1-3);}.cls-7{stroke-width:2px;fill:url(#Безымянный_градиент_283);stroke:url(#Foliage_1-4);}.cls-8{fill:url(#Безымянный_градиент_341);}.cls-9{fill:url(#Безымянный_градиент_336);}.cls-10{fill:url(#Безымянный_градиент_336-2);}.cls-11{fill:url(#Безымянный_градиент_336-3);}.cls-12{fill:url(#Безымянный_градиент_336-4);}.cls-13{fill:url(#Безымянный_градиент_336-5);}.cls-14{fill:url(#Безымянный_градиент_336-6);}</style><linearGradient id="Безымянный_градиент_337" x1="59.51" y1="90.86" x2="25.2" y2="90.86" gradientUnits="userSpaceOnUse"><stop offset="0" stop-color="#004819"/><stop offset="0.62" stop-color="#52ac62"/><stop offset="1" stop-color="#7cb95e"/></linearGradient><linearGradient id="Безымянный_градиент_337-2" x1="47.44" y1="110.02" x2="19.2" y2="110.02" xlink:href="#Безымянный_градиент_337"/><linearGradient id="Безымянный_градиент_337-3" x1="53.44" y1="190.45" x2="28.05" y2="190.45" xlink:href="#Безымянный_градиент_337"/><linearGradient id="Foliage_1" x1="21.2" y1="156.52" x2="3.56" y2="156.52" gradientUnits="userSpaceOnUse"><stop offset="0" stop-color="#7cb95e"/><stop offset="0.38" stop-color="#52ac62"/><stop offset="1" stop-color="#004819"/></linearGradient><linearGradient id="Foliage_1-2" x1="35.32" y1="179.93" x2="2.56" y2="179.93" xlink:href="#Foliage_1"/><linearGradient id="Foliage_1-3" x1="27.7" y1="99.78" x2="10.38" y2="99.78" xlink:href="#Foliage_1"/><linearGradient id="Безымянный_градиент_283" x1="128.62" y1="4.04" x2="40.12" y2="211.04" gradientUnits="userSpaceOnUse"><stop offset="0" stop-color="#afff4d" stop-opacity="0.5"/><stop offset="0.16" stop-color="#97f54c" stop-opacity="0.5"/><stop offset="0.44" stop-color="#57db48" stop-opacity="0.5"/><stop offset="0.54" stop-color="#3ed146" stop-opacity="0.5"/><stop offset="1" stop-color="#165322" stop-opacity="0.7"/></linearGradient><linearGradient id="Foliage_1-4" x1="148.14" y1="104.89" x2="9.88" y2="104.89" xlink:href="#Foliage_1"/><radialGradient id="Безымянный_градиент_341" cx="31.04" cy="133.01" r="56.29" xlink:href="#Безымянный_градиент_337"/><radialGradient id="Безымянный_градиент_336" cx="107.96" cy="136.43" r="43.37" gradientUnits="userSpaceOnUse"><stop offset="0" stop-color="#2e683c"/><stop offset="0.09" stop-color="#326b3c"/><stop offset="0.17" stop-color="#3e743c"/><stop offset="0.26" stop-color="#52823c"/><stop offset="0.34" stop-color="#6e973c"/><stop offset="0.43" stop-color="#91b13b"/><stop offset="0.49" stop-color="#b1c83b"/><stop offset="0.55" stop-color="#92b23b"/><stop offset="0.64" stop-color="#6e973c"/><stop offset="0.73" stop-color="#52833c"/><stop offset="0.82" stop-color="#3e743c"/><stop offset="0.91" stop-color="#326b3c"/><stop offset="1" stop-color="#2e683c"/></radialGradient><radialGradient id="Безымянный_градиент_336-2" cx="102.13" cy="112.89" r="8.74" xlink:href="#Безымянный_градиент_336"/><radialGradient id="Безымянный_градиент_336-3" cx="110.27" cy="127.29" r="5.84" xlink:href="#Безымянный_градиент_336"/><radialGradient id="Безымянный_градиент_336-4" cx="104.36" cy="147.61" r="5.84" xlink:href="#Безымянный_градиент_336"/><radialGradient id="Безымянный_градиент_336-5" cx="120.66" cy="141.83" r="4.38" xlink:href="#Безымянный_градиент_336"/><radialGradient id="Безымянный_градиент_336-6" cx="102.97" cy="163.89" r="4.41" xlink:href="#Безымянный_градиент_336"/></defs><title>Ресурс 1</title><g id="Слой_2" data-name="Слой 2"><g id="Слой_2-2" data-name="Слой 2"><line class="cls-1" x1="57.51" y1="90.86" x2="27.2" y2="90.86"/><line class="cls-2" x1="45.44" y1="110.02" x2="21.2" y2="110.02"/><line class="cls-3" x1="51.44" y1="190.45" x2="30.05" y2="190.45"/><line class="cls-4" x1="5.56" y1="156.52" x2="19.2" y2="156.52"/><line class="cls-5" x1="4.56" y1="179.93" x2="33.32" y2="179.93"/><line class="cls-6" x1="12.38" y1="99.78" x2="25.7" y2="99.78"/><path class="cls-7" d="M77,3.07S54,42,38.74,56C22.54,70.94,11,91.45,10.89,104.55c-.16,13.39,1.65,23,14.13,33.83C36.19,148,57,160.56,51.58,206.17c0,0,58.83,19.76,89.23-49.32S82.71,52.88,77,3.07Z"/></g><g id="Слой_3" data-name="Слой 3"><path class="cls-8" d="M24.51,206.32a2,2,0,0,1-.93-.23c-.82-.43-20.11-10.73-23.18-30.77-2.27-14.85,5-30.82,21.68-47.48l.26-.21C51.41,107,57.82,89.35,58.09,78.2c.2-8.72-3.3-13.81-4.12-14.65a2,2,0,0,1,.77-3.84c2.61,0,5,5.39,5.92,8.24,2.92,9.15,5.26,33.57-35.87,62.84C9.18,146.44,2.31,161.21,4.35,174.68c2.74,18,20.91,27.77,21.09,27.87a2,2,0,0,1-.93,3.77ZM54.74,63.71Zm0,0h0Z"/></g><g id="Слой_4" data-name="Слой 4"><path class="cls-9" d="M130.84,138.1c-.22,1.6-.39,3.13-.65,4.65-.12.69.1.92.78,1,2.48.28,5,.61,7.43.93l.82.08-.47,2.94-9.28-1.25L128,151.31l10.56,2.8-.9,2.8-10.76-2.82-1.64,3.54,8.45,4.05-1.41,2.59-8.43-4-3.38,5.09,5,3c-.36.64-.72,1.31-1.12,2s-.75.4-1.16.15c-1.32-.79-2.63-1.61-4-2.35a1.22,1.22,0,0,0-1.09.07c-.8.76-1.5,1.61-2.23,2.43-.38.44-.43.75.09,1.19,2.13,1.84,4.18,3.75,6.3,5.61.42.36.45.59,0,1s-1,1.06-1.58,1.68l-6.17-5.57c-.43-.39-.83-1-1.34-1.08s-1,.5-1.47.77a25.07,25.07,0,0,1-2.47,1.27c-.57.22-.6.47-.49,1,.31,1.33.55,2.69.83,4.07l-2.82.66-1.08-4.47c-1,.1-2,.15-3,.31a1,1,0,0,0-.56.67c-.27,3.23-.51,6.47-.76,9.78h-3l.82-10.42-.27-.14c-1.63-.72-2.78-.26-4,1.2-1.92,2.33-4.12,4.45-6.21,6.66a3,3,0,0,1-.53.31l-1.94-1.87,7.43-7.87L89,171.73l-5,3.65-1.72-2.26,5.15-3.74c-.5-1.12-1-2.28-1.54-3.36-.14-.25-.78-.36-1.16-.31-2.25.33-4.49.73-6.78,1.11L77.42,164,85,162.7c0-1.24.07-2.48,0-3.71,0-.18-.32-.42-.55-.48-3.46-.91-6.94-1.78-10.51-2.69l.83-2.85,6.45,1.69c1.32.35,2.62.74,4,1,.18,0,.59-.29.7-.53.63-1.4,1.2-2.83,1.88-4.44l-6-3.81,1.66-2.47c2,1.26,3.85,2.5,5.79,3.67a1.13,1.13,0,0,0,1.06-.18,16,16,0,0,0,3.61-7.63c-1.44.08-2.83.1-4.21.25-.69.08-.92-.12-.91-.74s0-1.32,0-2l5.18-.33a12.45,12.45,0,0,0-1.24-5.27,10.56,10.56,0,0,0-.82-1.37c-1-1.4-1-1.39-2.51-.84L77.6,134.14l-.92-2.75,11.86-4-4.83-6.65L76.26,123l-.76-2.73,7.42-2.33-.2-7.33-8.67-2.86L75.14,105l8.23,2.71,4.47-7.51-7.21-6.46,2.06-2.15,5.61,5s0,.06.06.08c1.81,1.7,1.8,1.69,4,.31.78-.49,1.61-.89,2.42-1.33-.68-3-1.35-5.92-2-8.85-.1-.42-.12-.82.56-.91a17.5,17.5,0,0,0,2.15-.52l2.1,9.22,3.66-.48.8-6.07,2.92.24L104.24,94l3.83.86,2.39-7.52,2.76.74c-.8,2.6-1.59,5.18-2.31,7.5,1.7,1.3,3.31,2.47,4.82,3.74.54.45.76.12,1-.17,2.19-2.31,4.36-4.63,6.64-7.05L125.56,94l-7.31,7.7,2.93,3.5,4.78-3.12,1.65,2.16c-1.27.92-2.44,1.86-3.69,2.65-.91.57-1,1.09-.43,1.86.88,1.27,1.7,2.58,2.58,3.93,1.91-1.06,4-2.15,6-3.31,1.39-.8,1.37-.84,2.16.51.2.35.44.68.73,1.13l-5,2.77c-.41.23-.8.49-1.21.72-1.6.9-1.58.89-.94,2.6.45,1.18.82,2.4,1.22,3.6l12.3-3.56.71,2.78-12.23,3.52.73,4.43,10.07-1.5.33,2.81-10.1,1.56.1,4.42,5,.7-.44,2.87ZM121,109.78c-2-2.35-3.83-4.8-5.92-7a16.61,16.61,0,0,0-21.19-3.38,16.18,16.18,0,0,0-8.06,12.19A14.63,14.63,0,0,0,90.87,125a16.94,16.94,0,0,1,5.32,7.71,17.42,17.42,0,0,1-3.3,16.4c-2.92,3.31-5,6.89-5,11.35a13.33,13.33,0,0,0,2.54,7.94,13.5,13.5,0,0,0,9.82,5.65A14.7,14.7,0,0,0,112,170.39a45.23,45.23,0,0,0,9.56-12,48.25,48.25,0,0,0,5.46-32.94A49.8,49.8,0,0,0,121,109.78Z"/><path class="cls-10" d="M106.75,120c-4.11,2.76-9.7,1.55-12.06-2.08A9,9,0,1,1,106.75,120Zm-1.62-2.3a5.67,5.67,0,1,0-7.91-1.46A5.79,5.79,0,0,0,105.13,117.72Z"/><path class="cls-11" d="M107.38,122.44c3.06-1.74,6.37-.9,8,1.83,1.76,2.92.42,6.33-2.37,8a5.66,5.66,0,1,1-5.64-9.8Zm5.35,3.24a2.91,2.91,0,0,0-4-.83,3.08,3.08,0,0,0-1.06,4,3,3,0,0,0,4.07.86A2.94,2.94,0,0,0,112.73,125.68Z"/><path class="cls-12" d="M101.28,142.84A5.67,5.67,0,1,1,99.4,151,5.75,5.75,0,0,1,101.28,142.84Zm1.59,2.42a2.87,2.87,0,0,0-1.05,3.93,3,3,0,0,0,5.07-3.07A2.69,2.69,0,0,0,102.87,145.26Z"/><path class="cls-13" d="M122.88,145.49a4.39,4.39,0,0,1-5.93-1.13,4.49,4.49,0,0,1,7.49-4.93A4.41,4.41,0,0,1,122.88,145.49Zm-3.44-3a1.44,1.44,0,0,0,2,.49,1.35,1.35,0,0,0,.4-1.9,1.53,1.53,0,0,0-2.08-.41C119.32,141.17,118.74,141.78,119.44,142.51Z"/><path class="cls-14" d="M105.19,167.49a4.25,4.25,0,1,1,1.47-6.06A4.2,4.2,0,0,1,105.19,167.49Zm-3.41-2.64a1.65,1.65,0,0,0,2,.25,1.6,1.6,0,0,0,.4-2,1.62,1.62,0,0,0-2.09-.28A1.55,1.55,0,0,0,101.78,164.85Z"/></g></g></svg>